<?xml version="1.0" encoding="utf-8"?>
<!-- Generator: Adobe Illustrator 24.0.0, SVG Export Plug-In . SVG Version: 6.00 Build 0)  -->
<svg version="1.1" id="Layer_1" xmlns="http://www.w3.org/2000/svg" xmlns:xlink="http://www.w3.org/1999/xlink" x="0px" y="0px"
	 viewBox="0 0 32 32" style="enable-background:new 0 0 32 32;" xml:space="preserve">
<style type="text/css">
	.st0{fill:#FFFFFF;}
	.st1{fill:none;stroke:#1D3767;stroke-linecap:round;stroke-miterlimit:10;}
	.st2{fill:none;stroke:#1D3767;stroke-linecap:round;stroke-linejoin:round;stroke-miterlimit:10;}
	.st3{fill:#1D3767;}
	.st4{fill:none;stroke:#1D3767;stroke-miterlimit:10;}
	.st5{fill:none;stroke:#58585A;stroke-width:0.75;stroke-linecap:round;stroke-linejoin:round;stroke-miterlimit:10;}
	.st6{fill:#58595B;}
</style>
<g>
	<path class="st5" d="M20.8,15.4h-9.5c-0.7,0-1.3-0.6-1.2-1.3l1-11C11.1,2.5,11.6,2,12.2,2h7.5c0.6,0,1.2,0.5,1.2,1.1l1,11
		C22,14.8,21.5,15.4,20.8,15.4z"/>
	<path class="st5" d="M21.9,19H22c1.1,0,2.1-0.8,2.4-1.8l1.4-4.2"/>
	<path class="st5" d="M6.3,13l1.4,4.2C7.9,18.3,8.9,19,10,19h0.1"/>
	<path class="st5" d="M18.4,16.6h-4.9c-2,0-3.7,1.6-3.7,3.7l0,0h12.2l0,0C22.1,18.2,20.5,16.6,18.4,16.6z"/>
	<line class="st5" x1="16" y1="20.3" x2="16" y2="30"/>
	<path class="st5" d="M20.9,30c0-1.3-1.1-2.4-2.4-2.4h-4.9c-1.3,0-2.4,1.1-2.4,2.4"/>
	<polyline class="st5" points="27,13 25.7,13 24.5,13 	"/>
	<polyline class="st5" points="7.5,13 6.3,13 5,13 	"/>
</g>
</svg>
